# xmcd
#
# Track frame offsets: 
#        182
#        30112
#        55865
#        72672
#        94680
#        111182
#        135537
#        146952
#        168707
#        187287
#        210335
#
# Disc length: 3001 seconds
#
# Revision: 16
# Processed by: cddbd v1.5.2PL0 Copyright (c) Steve Scherf et al.
# Submitted via: ExactAudioCopy v0.99pb5
#
DISCID=a40bb70b
DTITLE=Tom Waits - Small Change
DYEAR=1976
DGENRE=Singer/Songwriter
TTITLE0=Tom Traubert's Blues
TTITLE1=Step Right Up
TTITLE2=Jitterbug Boy
TTITLE3=I Wish I Was in New Orleans
TTITLE4=The Piano Has Been Drinking (Not Me)
TTITLE5=Invitation to the Blues
TTITLE6=Pasties and a G-String
TTITLE7=Bad Liver and a Broken Heart
TTITLE8=The One That Got Away
TTITLE9=Small Change
TTITLE10=I Can't Wait to Get Off Work
EXTD=All selections written by Tom Waits.\nTom Waits: piano, vocals\nL
EXTD=ew Tabackin: tenor sax\nJim Hughart: bass\nShelly Manne: drums\nS
EXTD=trings arranged and conducted by Jerry Yester.\nviolins: Harry Bl
EXTD=uestone (concertmaster), Israel Baker, Nathan Kaproff, Nathan Ros
EXTD=s, George Kast, Murray Addler, Marvin Limonick, Alfred Lustgarten
EXTD=, Sheldon Sanov\nviolas: Sam Boghossian, David Schwartz, Allan Ha
EXTD=rshman\ncelli: Ed Lustgarten (orchestra manager), Kathleen Lustga
EXTD=rten, Ray Kelley, Jesse Ehrlich\nRecorded direct to 2-track tape 
EXTD=by Bones Howe at Wally Heider Recording, Hollywood US-CA, 1976-07
EXTD=16,19/21,29.\nMastering: Terry Dunavan, Elektra Sound Recorders,
EXTD=Los Angeles US-CA\nProduced by Bones Howe.\nOriginally released 
EXTD=as Asylum LP 7E-1078 (1976-10).\nCD mastering by Stephen Innocenz
EXTD=i, Atlantic Studios, New York US-NY.\nCD: Elektra/Asylum 1078-2 (
EXTD=1990-10-25), UPC 075596061223.
EXTT0=(Tom Waits]\nsubtitle: Four Sheets to the Wind in Copenhagen
EXTT1=(Tom Waits)
EXTT2=(Tom Waits]\nsubtitle: Sharing a Curbstone with Chuck E. Weiss, 
EXTT2=Robert Marchese, Paul Body and the Mug and Artie
EXTT3=(Tom Waits]\nsubtitle: In the Ninth Ward
EXTT4=(Tom Waits]\nsubtitle: An Evening with Pete King
EXTT5=(Tom Waits)
EXTT6=(Tom Waits]\nsubtitle: At the Two o'Clock Club
EXTT7=(Tom Waits]\nsubtitle: In Lowell
EXTT8=(Tom Waits)
EXTT9=(Tom Waits]\nsubtitle: Got Rained On with His Own .38
EXTT10=(Tom Waits]\nsubtitle: And See My Baby on Montgomery Avenue
PLAYORDER=
